<svg width="20" height="20" viewBox="0 0 20 20" fill="none" xmlns="http://www.w3.org/2000/svg">
<path d="M18.2659 14.6944L13.5721 10.0006L18.2659 5.30669C18.6741 4.89853 18.6741 4.28628 18.2659 3.87812L16.1231 1.73526C15.7149 1.3271 15.1027 1.3271 14.6945 1.73526L10.0006 6.42914L5.30675 1.73526C4.89859 1.3271 4.28634 1.3271 3.87818 1.73526L1.73532 3.87812C1.32716 4.28628 1.32716 4.89853 1.73532 5.30669L6.4292 10.0006L1.73532 14.6944C1.32716 15.1026 1.32716 15.7149 1.73532 16.123L3.87818 18.2659C4.28634 18.674 4.89859 18.674 5.30675 18.2659L10.0006 13.572L14.6945 18.2659C15.1027 18.674 15.7149 18.674 16.1231 18.2659L18.2659 16.123C18.6741 15.7149 18.6741 15.1026 18.2659 14.6944Z" fill="#344273"/>
</svg>
